<?xml version="1.0" standalone="no"?><!DOCTYPE svg PUBLIC "-//W3C//DTD SVG 1.1//EN" "http://www.w3.org/Graphics/SVG/1.1/DTD/svg11.dtd"><svg t="1698905543249" class="icon" viewBox="0 0 1027 1024" version="1.1" xmlns="http://www.w3.org/2000/svg" p-id="7986" xmlns:xlink="http://www.w3.org/1999/xlink" width="200.5859375" height="200"><path d="M793.16261 1017.225993H231.277658c-124.836551 0-226.138545-101.300097-226.138545-226.138545V229.432055c0-124.836551 101.301994-226.138545 226.138545-226.138545H792.933051c124.836551 0 226.138545 101.301994 226.138545 226.138545V791.087448c0 124.838448-101.070537 226.138545-225.908986 226.138545z" fill="#FF8155" opacity=".42" p-id="7987"></path><path d="M1017.455196 812.777943c0.692472-7.152381 1.155385-14.304761 1.155384-21.690495v-176.98822L410.111838 5.369028l7.846749-2.075518H230.816643c-8.076309 0-16.152618 0.462913-24.228927 1.384944l615.188211 606.189871-400.588334 406.357668h200.063659l297.440381-301.826669 98.763563 97.378619z" fill="#E8E8E8" p-id="7988"></path><path d="M1018.61058 614.099228V229.432055c0-124.836551-101.301994-226.138545-226.140442-226.138545H417.958587l-7.846749 2.077416L1018.61058 614.099228z" fill="#FF8155" p-id="7989"></path><path d="M1018.61058 614.099228V229.432055c0-124.836551-101.301994-226.138545-226.140442-226.138545H417.958587l-7.846749 2.077416L1018.61058 614.099228z" fill="#00C562" p-id="7990"></path><path d="M206.587716 4.678454C93.05648 16.678137 4.678098 112.901372 4.678098 229.432055V791.087448c0 124.838448 101.300097 226.138545 226.138545 226.138545h190.37095l400.358775-406.357668L206.587716 4.680351z" fill="#3776FF" p-id="7991"></path><path d="M1017.455196 812.777943l-98.761666-97.378619-297.44038 301.826669h171.216988c117.454611 0 214.140758-89.763326 224.986955-204.44805z" fill="#FF8155" p-id="7992"></path><path d="M1017.455196 812.777943l-98.761666-97.378619-297.44038 301.826669h171.216988c117.454611 0 214.140758-89.763326 224.986955-204.44805z" fill="#C1C1C1" p-id="7993"></path><path d="M617.79079 571.179252c29.535348-32.075676 54.227187-68.765302 73.379252-109.378302L822.007383 183.51453c5.539775-11.768227-9.461253-26.074886-20.998023-20.305552L527.566449 303.966691a436.183285 436.183285 0 0 0-106.839871 77.302626c40.613001 35.534241 80.072514 70.84082 101.763009 91.609285 21.459039 21.22948 57.919106 58.841137 95.301203 98.30065z" fill="#F94A13" p-id="7994"></path><path d="M522.258131 473.108161c-21.690495-20.766567-61.150009-56.073146-101.76301-91.609284-35.765698 35.306579-65.301045 77.073067-87.224894 123.684961L202.434782 783.472154c-5.537878 11.768227 9.461253 26.074886 20.999921 20.307449l273.441014-140.761507c45.921319-23.766014 86.53432-54.688203 120.685514-91.838844-37.150641-39.459513-73.610708-77.07117-95.301203-98.071091z" fill="#FFFFFF" p-id="7995"></path></svg>