<svg t="1677808779837" class="icon" viewBox="0 0 1024 1024" version="1.1" xmlns="http://www.w3.org/2000/svg" p-id="5472"
    width="200" height="200">
    <path
        d="M678.4 713.6c75.5-86.1 183.7-243.4 183.7-338.4 0-175.5-142.3-317.7-317.7-317.7-175.5 0-317.7 142.3-317.7 317.7 0 95 107.2 252.3 182.3 338.4h269.4z"
        fill="#186FED" p-id="5473"></path>
    <path
        d="M687.5 733.6H399.8l-6-6.9c-44-50.4-88.3-112-121.5-168.9-43.6-74.7-65.7-136.1-65.7-182.6 0-45.6 8.9-89.8 26.5-131.5 17-40.2 41.4-76.3 72.4-107.3S372.7 81 412.9 64c41.6-17.6 85.9-26.5 131.5-26.5s89.8 8.9 131.5 26.5c40.2 17 76.3 41.4 107.3 72.4 31 31 55.4 67.1 72.4 107.3 17.6 41.6 26.5 85.9 26.5 131.5 0 46.5-22.3 108-66.3 182.7-33.4 56.8-78 118.3-122.3 168.9l-6 6.8z m-269.4-40h251.2c40.3-46.9 81.8-104.6 112-156 39.8-67.5 60.8-123.7 60.8-162.4 0-79.5-31-154.3-87.2-210.5-56.2-56.2-131-87.2-210.5-87.2s-154.3 31-210.5 87.2-87.2 131-87.2 210.5c0 38.8 20.8 95 60.3 162.4 30 51.5 71.1 109.2 111.1 156z"
        fill="#444D68" p-id="5474"></path>
    <path
        d="M544.4 892.5c-5.5 0-10-4.5-10-10V709.7c0-5.5 4.5-10 10-10s10 4.5 10 10v172.9c0 5.5-4.5 9.9-10 9.9zM477.1 892.5c-4 0-7.8-2.4-9.3-6.3l-59.3-150.6c-2-5.1 0.5-10.9 5.6-13 5.1-2 10.9 0.5 13 5.6l59.3 150.6c2 5.1-0.5 10.9-5.6 13-1.2 0.5-2.4 0.7-3.7 0.7zM611.6 892.5c-1.2 0-2.5-0.2-3.7-0.7-5.1-2-7.7-7.8-5.6-13l59.3-150.6c2-5.1 7.8-7.7 13-5.6 5.1 2 7.7 7.8 5.6 13l-59.3 150.6c-1.5 3.9-5.3 6.3-9.3 6.3z"
        fill="#444D68" p-id="5475"></path>
    <path
        d="M610.7 966.5H478c-5.3 0-9.7-4.3-9.7-9.7l-38.6-120.2c0-5.3 4.3-9.7 9.7-9.7h210c5.3 0 9.7 4.3 9.7 9.7l-38.6 120.2c-0.1 5.4-4.5 9.7-9.8 9.7z"
        fill="#F9CC12" p-id="5476"></path>
    <path
        d="M610.7 976.5H478c-10.2 0-18.6-7.8-19.6-17.8l-38.7-120.5v-1.6c0-10.8 8.8-19.7 19.7-19.7h210c10.8 0 19.7 8.8 19.7 19.7v1.6l-0.5 1.5-38.2 119c-1.1 10-9.5 17.8-19.7 17.8z m-132.3-20h132v-1.2l0.5-1.5L648.4 837h-208l38 118.3v1.2z"
        fill="#444D68" p-id="5477"></path>
    <path
        d="M438.4 391.6c0 128.3 41 243.4 105.9 322 65-78.6 105.9-193.7 105.9-322s-41-243.4-105.9-322c-64.9 78.6-105.9 193.8-105.9 322z"
        fill="#F9CC12" p-id="5478"></path>
    <path
        d="M544.4 745L529 726.3c-34.5-41.8-61.7-91.8-80.9-148.7-19.7-58.5-29.7-121.1-29.7-186s10-127.5 29.7-186c19.1-56.9 46.3-106.9 80.9-148.7l15.4-18.6 15.4 18.6c34.5 41.8 61.7 91.8 80.9 148.7 19.7 58.5 29.7 121.1 29.7 186s-10 127.5-29.7 186c-19.1 56.9-46.3 106.9-80.9 148.7L544.4 745z m0-642.5c-54.9 76.6-85.9 180.4-85.9 289.2s31.1 212.6 85.9 289.2c54.9-76.6 85.9-180.4 85.9-289.2S599.2 179 544.4 102.5z"
        fill="#444D68" p-id="5479"></path>
</svg>