<svg width="16" height="16" viewBox="0 0 16 16" fill="none" xmlns="http://www.w3.org/2000/svg">
<g id="Frame 219">
<g id="Group 18">
<path id="Vector" fill-rule="evenodd" clip-rule="evenodd" d="M4.5 6.95L5.8125 5.55L8.4375 8.35L13.6875 2.75L15 4.15L8.4375 11.15L4.5 6.95Z" fill="#EB483F"/>
<path id="Ellipse 3" d="M11.0816 2.30376C9.84454 1.55855 8.39855 1.23628 6.96215 1.38565C5.52575 1.53503 4.17702 2.14794 3.1198 3.13174C2.06259 4.11554 1.35437 5.41676 1.10219 6.83872C0.85 8.26068 1.06756 9.72608 1.72197 11.0134C2.37639 12.3008 3.4321 13.3401 4.72952 13.9744C6.02695 14.6086 7.49558 14.8032 8.91342 14.5289C10.3313 14.2545 11.6213 13.526 12.5884 12.4536C13.5556 11.3811 14.1474 10.023 14.2743 8.58443" stroke="#EB483F"/>
</g>
</g>
</svg>
