<svg xmlns="http://www.w3.org/2000/svg" class="svg-icon fill" viewBox="0 0 32 32">
    <path
        d="M29.088 19.776v0.16c-0.096 0.064-0.128 0.192-0.16 0.288-1.568 3.008-3.52 5.728-6.432 7.648-3.84 2.56-7.84 2.848-11.968 0.64-2.496-1.344-4.32-3.36-5.888-5.632-0.64-0.96-1.184-1.952-1.728-2.944v-0.16c0.064 0 0.16 0 0.224-0.032 0.576-0.169 1.239-0.266 1.924-0.266 0.8 0 1.569 0.133 2.286 0.377l-0.050-0.015c2.56 0.768 4.512 2.368 6.208 4.32 0.555 0.676 1.083 1.429 1.554 2.22l0.046 0.084v-0.288c0-4.256 0-8.512 0.032-12.768 0-0.32-0.16-0.352-0.416-0.352-0.074 0.002-0.16 0.004-0.247 0.004-1.326 0-2.575-0.333-3.667-0.92l0.041 0.020c-1.568-0.8-2.592-2.048-2.688-3.808-0.015-0.42-0.024-0.913-0.024-1.408s0.009-0.988 0.026-1.479l-0.002 0.071v-3.552l4.256 3.968 3.584-3.968 3.424 3.968 4.32-3.968 0.096 1.952v0.224c0.032 1.312 0 2.592 0 3.872 0 1.44-0.576 2.624-1.728 3.52-1.376 1.088-3.008 1.472-4.768 1.504-0.352 0-0.48 0.096-0.48 0.448 0.032 4.16 0.032 8.32 0.032 12.48 0 0.128-0.032 0.256 0.032 0.384 0.032-0.032 0.064-0.032 0.064-0.032l0.16-0.288c1.376-2.208 3.168-4.032 5.472-5.344 1.6-0.896 3.296-1.408 5.184-1.152 0.448 0.032 0.864 0.16 1.28 0.224z">
    </path>
</svg>