<svg width="14" height="15" viewBox="0 0 14 15" fill="none" xmlns="http://www.w3.org/2000/svg">
<g id="icon">
<path id="Vector" d="M6.78596 2.25226C9.04163 2.38401 9.10603 4.69148 8.83308 5.64004C11.5626 4.77268 12.6089 6.00145 12.7908 6.72426C13.1183 8.45883 11.4716 8.98281 10.6072 9.02796C12.3541 11.1961 11.5171 12.2802 10.8802 12.5513C8.91496 13.0933 7.78679 11.693 7.46835 10.9251C6.59489 12.7681 5.10278 12.8675 4.46593 12.6868C2.60987 12.1447 3.4196 10.2024 4.05649 9.29897C1.4362 8.86535 1.05408 7.58251 1.19055 6.9953C1.62727 4.82711 3.92002 5.1884 5.01181 5.64004C4.5751 2.82141 6.01261 2.20709 6.78596 2.25226Z" stroke="#575859" stroke-width="0.666667" stroke-linecap="round" stroke-linejoin="round"/>
<path id="Vector_2" d="M7.29167 8.08337L6.125 9.54171" stroke="#575859" stroke-width="0.666667" stroke-linecap="round" stroke-linejoin="round"/>
<path id="Vector_3" d="M5.54163 7.79163L7.29163 8.08329" stroke="#575859" stroke-width="0.666667" stroke-linecap="round" stroke-linejoin="round"/>
<path id="Vector_4" d="M7 6.04163L7.29167 8.08329" stroke="#575859" stroke-width="0.666667" stroke-linecap="round" stroke-linejoin="round"/>
<path id="Vector_5" d="M9.04163 7.5L7.29163 8.08333" stroke="#575859" stroke-width="0.666667" stroke-linecap="round" stroke-linejoin="round"/>
<path id="Vector_6" d="M7.29163 8.08337L8.74996 9.25004" stroke="#575859" stroke-width="0.666667" stroke-linecap="round" stroke-linejoin="round"/>
</g>
</svg>
