<?xml version="1.0" standalone="no"?><!DOCTYPE svg PUBLIC "-//W3C//DTD SVG 1.1//EN" "http://www.w3.org/Graphics/SVG/1.1/DTD/svg11.dtd"><svg t="1679970479328" class="icon" viewBox="0 0 1024 1024" version="1.1" xmlns="http://www.w3.org/2000/svg" p-id="2859" xmlns:xlink="http://www.w3.org/1999/xlink" width="200" height="200"><path d="M926.293333 620.373333L819.626667 512a42.666667 42.666667 0 0 0-60.586667 0L640 633.173333 520.96 512a42.666667 42.666667 0 0 0-60.586667 0L362.666667 611.84 264.96 512a42.666667 42.666667 0 0 0-60.586667 0l-106.666666 106.666667a42.666667 42.666667 0 0 0-8.96 14.08 42.666667 42.666667 0 0 0-3.413334 16.213333V810.666667a128 128 0 0 0 128 128h597.333334a128 128 0 0 0 128-128v-160a42.666667 42.666667 0 0 0-3.413334-16.213334 42.666667 42.666667 0 0 0-8.96-14.08zM853.333333 810.666667a42.666667 42.666667 0 0 1-42.666666 42.666666H213.333333a42.666667 42.666667 0 0 1-42.666666-42.666666v-142.506667l64-64 97.706666 98.133333a42.666667 42.666667 0 0 0 60.586667 0l97.706667-98.133333L609.706667 725.333333a42.666667 42.666667 0 0 0 60.586666 0l119.04-119.466666 64 64zM810.666667 85.333333H213.333333a128 128 0 0 0-128 128v224.426667a49.92 49.92 0 0 0 0 11.52v4.266667a42.666667 42.666667 0 0 0 70.826667 13.226666L234.666667 390.826667l97.706666 98.133333a42.666667 42.666667 0 0 0 60.586667 0l97.706667-98.133333L609.706667 512a42.666667 42.666667 0 0 0 60.586666 0l119.04-119.466667 75.52 75.946667a42.666667 42.666667 0 0 0 70.826667-13.226667 11.946667 11.946667 0 0 0 0-3.84 37.546667 37.546667 0 0 0 2.56-11.946666V213.333333A128 128 0 0 0 810.666667 85.333333z m42.666666 249.173334L819.626667 298.666667a42.666667 42.666667 0 0 0-60.586667 0L640 419.84 520.96 298.666667a42.666667 42.666667 0 0 0-60.586667 0L362.666667 398.506667 264.96 298.666667a42.666667 42.666667 0 0 0-60.586667 0L170.666667 334.506667V213.333333a42.666667 42.666667 0 0 1 42.666666-42.666666h597.333334a42.666667 42.666667 0 0 1 42.666666 42.666666z" p-id="2860"></path></svg>