<svg width="33" height="33" viewBox="0 0 33 33" fill="none" xmlns="http://www.w3.org/2000/svg">
<g id="Group 14">
<g id="Frame">
<path id="Vector" d="M26.043 4.5H6.04297C4.9384 4.5 4.04297 5.39543 4.04297 6.5V26.5C4.04297 27.6046 4.9384 28.5 6.04297 28.5H26.043C27.1476 28.5 28.043 27.6046 28.043 26.5V6.5C28.043 5.39543 27.1476 4.5 26.043 4.5Z" stroke="#CCCCCC" stroke-linecap="round" stroke-linejoin="round"/>
<path id="Vector_2" d="M12.0428 15.8332C13.8837 15.8332 15.3761 14.3408 15.3761 12.4998C15.3761 10.6589 13.8837 9.1665 12.0428 9.1665C10.2019 9.1665 8.70947 10.6589 8.70947 12.4998C8.70947 14.3408 10.2019 15.8332 12.0428 15.8332Z" stroke="#CCCCCC" stroke-linecap="round" stroke-linejoin="round"/>
<path id="Vector_3" d="M28.043 24.5002L20.7096 17.8335L14.043 23.8335L9.3763 19.8335L4.04297 23.8335" stroke="#CCCCCC" stroke-linecap="round" stroke-linejoin="round"/>
</g>
</g>
</svg>
