<svg t="1676808358368" class="icon" viewBox="0 0 1024 1024" version="1.1" xmlns="http://www.w3.org/2000/svg" p-id="2429" width="200" height="200"><path d="M0 192v64h608v480h-196.992c-14.272-55.008-63.744-96-123.008-96-59.264 0-108.736 40.992-123.008 96H128v-160H64v224h100.992c14.272 55.008 63.744 96 123.008 96 59.264 0 108.736-40.992 123.008-96h265.984c14.272 55.008 63.744 96 123.008 96 59.264 0 108.736-40.992 123.008-96H1024v-260.992l-2.016-5.024-64-192L951.04 320H672V192z m32 128v64h288v-64z m640 64h232.992L960 548V736h-36.992c-14.272-55.008-63.744-96-123.008-96-59.264 0-108.736 40.992-123.008 96H672zM64 448v64h192v-64z m224 256c35.744 0 64 28.256 64 64s-28.256 64-64 64-64-28.256-64-64 28.256-64 64-64z m512 0c35.744 0 64 28.256 64 64s-28.256 64-64 64-64-28.256-64-64 28.256-64 64-64z" p-id="2430"></path></svg>