<svg xmlns="http://www.w3.org/2000/svg" class="styles__StyledSVGIconPathComponent-sc-16fsqc8-0 dJTTuM svg-icon-path-icon fill" viewBox="0 0 32 32" width="24" height="24"><defs data-reactroot=""></defs><g><path d="M5 9h6v-3c0-2.8 2.2-5 5-5s5 2.2 5 5c0-2.8-2.2-5-5-5s-5 2.2-5 5v3h-6z"></path><path d="M16 0c-3.4 0-6 2.6-6 6v2h-6l-2 22h28l-2-22h-6v-2c0-3.4-2.6-6-6-6zM12 8v-2c0-2.2 1.8-4 4-4s4 1.8 4 4v2h-8zM4.2 28l1.6-18h20.4l1.6 18h-23.6z"></path><path d="M20 12.6v1.4h2v-2h-2z"></path><path d="M22 12h-2v2h2v-2zM10 12.6v1.4h2v-2h-2z"></path><path d="M12 12h-2v2h2v-2z"></path></g></svg>