<svg width="24" height="24" viewBox="0 0 24 24" fill="none" xmlns="http://www.w3.org/2000/svg">
<g id="icon">
<path id="Vector" d="M2.5 7.5H21.5L19.4 20.5H4.6L2.5 7.5Z" stroke="#575859" stroke-linecap="round" stroke-linejoin="round"/>
<path id="Vector_2" d="M17.5 7.5C17.5 4.1863 15.0375 1.5 12 1.5C8.96245 1.5 6.5 4.1863 6.5 7.5" stroke="#575859" stroke-linecap="round" stroke-linejoin="round"/>
<path id="Vector_3" d="M8.5 12C8.77614 12 9 11.7761 9 11.5C9 11.2239 8.77614 11 8.5 11C8.22386 11 8 11.2239 8 11.5C8 11.7761 8.22386 12 8.5 12Z" fill="#575859"/>
<path id="Vector_4" d="M9 15.5C9 15.5 10 17 12 17C14 17 15 15.5 15 15.5" stroke="#575859" stroke-linecap="round" stroke-linejoin="round"/>
<path id="Vector_5" d="M15.5 12C15.7761 12 16 11.7761 16 11.5C16 11.2239 15.7761 11 15.5 11C15.2239 11 15 11.2239 15 11.5C15 11.7761 15.2239 12 15.5 12Z" fill="#575859"/>
</g>
</svg>
