<?xml version="1.0" standalone="no"?><!DOCTYPE svg PUBLIC "-//W3C//DTD SVG 1.1//EN" "http://www.w3.org/Graphics/SVG/1.1/DTD/svg11.dtd"><svg t="1672885271914" class="icon" viewBox="0 0 1879 1024" version="1.1" xmlns="http://www.w3.org/2000/svg" p-id="2923" xmlns:xlink="http://www.w3.org/1999/xlink" width="366.9921875" height="200"><path d="M1297.905202 180.087861s-7.694798-23.23237-44.984971-16.277456-111.722543 27.96763-111.722543 27.96763-95.445087-114.090173-167.657804-142.057804c0 0-48.092486-20.124855-90.117919 6.215029S775.398844 134.215029 729.526012 189.410405c0 0-18.645087 17.905202-1.479769 46.612716 0 0-125.780347-38.769942-145.905203-37.290173-20.124855 1.479769-26.339884 2.36763-34.182658 10.802312-7.694798 8.582659-134.363006 209.683237-93.225434 418.478613 41.137572 208.795376 208.795376 293.43815 253.928324 312.083237 44.984971 18.645087 224.332948 81.53526 416.110982 16.277456s302.020809-217.378035 305.868208-374.97341-80.795376-328.360694-132.73526-401.313295z m-505.489017 50.460116c14.797688-16.277457 105.655491-108.615029 140.578035-114.090174 0 0 31.815029-6.215029 134.363005 106.395376 0 0-105.655491 57.415029-132.73526 97.812717 0 0-11.690173 21.012717-0.739884 35.662428 0 0-90.117919-75.320231-172.393064-107.13526-0.147977 0 16.277457-2.36763 30.927168-18.645087z m438.159538 586.728324c-246.381503 183.195376-511.408092 44.393064-511.408093 44.393063-353.960694-190.446243-124.744509-586.136416-124.744509-586.136416 454.880925 97.812717 436.235838 457.248555 436.235839 457.248555s6.215029 32.554913 41.877456 29.447399c35.662428-3.107514 34.182659-36.550289 34.182659-36.550289-6.215029-224.332948-154.783815-351.74104-154.783815-351.741041 26.931792 8.286705 43.505202-8.286705 43.505202-8.286705 74.580347-93.225434 252.596532-125.188439 252.596532-125.188439 65.257803 90.117919 95.29711 215.306358 95.29711 215.306358 63.186127 248.601156-112.758382 361.507514-112.758381 361.507515z" fill="#212121" p-id="2924"></path></svg>