<svg width="24" height="24" viewBox="0 0 24 24" fill="none" xmlns="http://www.w3.org/2000/svg">
<g id="Frame">
<path id="Vector" fill-rule="evenodd" clip-rule="evenodd" d="M8.99121 5.98445L15.8925 2L18.1987 5.99445L8.99121 5.98445Z" fill="#F4A206" stroke="#333333" stroke-width="0.5" stroke-linecap="round" stroke-linejoin="round"/>
<path id="Vector_2" d="M2 7C2 6.4477 2.44771 6 3 6H21C21.5523 6 22 6.4477 22 7V21C22 21.5523 21.5523 22 21 22H3C2.44771 22 2 21.5523 2 21V7Z" stroke="#333333" stroke-width="0.5" stroke-linejoin="round"/>
<path id="Vector_3" d="M17.625 16.5H22V11.5H17.625C16.1753 11.5 15 12.6193 15 14C15 15.3807 16.1753 16.5 17.625 16.5Z" fill="#F4A206" stroke="#333333" stroke-width="0.5" stroke-linejoin="round"/>
<path id="Vector_4" d="M22 8.25V20.25" stroke="#333333" stroke-width="0.5" stroke-linecap="round"/>
</g>
</svg>
